<svg xmlns="http://www.w3.org/2000/svg" viewBox="0 0 512 512">
  <clipPath id="lh-clip"><rect width="512" height="512" rx="112"/></clipPath>
  <clipPath id="lh-page"><rect x="104" y="122" width="304" height="290" rx="40"/></clipPath>
  <pattern id="lh-dots" width="14" height="14" patternUnits="userSpaceOnUse"><circle cx="7" cy="7" r="3.4" fill="#0b0b0c"/></pattern>
  <linearGradient id="lh-fade" x1="1" y1="0" x2="0.3" y2="1"><stop offset="0" stop-color="#fff"/><stop offset="0.6" stop-color="#fff" stop-opacity="0"/></linearGradient>
  <mask id="lh-mask"><rect width="512" height="512" fill="url(#lh-fade)"/></mask>
  <rect width="512" height="512" rx="112" fill="#0b0b0c"/>
  <g clip-path="url(#lh-clip)"><circle cx="256" cy="260" r="190" fill="none" stroke="#232326" stroke-width="380" stroke-dasharray="5 19"/></g>
  <rect x="104" y="122" width="304" height="290" rx="40" fill="#f5f5f7"/>
  <g clip-path="url(#lh-page)" mask="url(#lh-mask)" opacity=".22"><rect x="104" y="122" width="304" height="290" fill="url(#lh-dots)"/></g>
  <g fill="none" stroke="#a1a1a6" stroke-width="8"><rect x="150" y="92" width="22" height="54" rx="11"/><rect x="214" y="92" width="22" height="54" rx="11"/><rect x="278" y="92" width="22" height="54" rx="11"/><rect x="342" y="92" width="22" height="54" rx="11"/></g>
  <g fill="#0b0b0c"><circle cx="161" cy="138" r="7"/><circle cx="225" cy="138" r="7"/><circle cx="289" cy="138" r="7"/><circle cx="353" cy="138" r="7"/></g>
  <g fill="none" stroke="#0b0b0c" stroke-width="10" stroke-linecap="round" stroke-linejoin="round"><rect x="148" y="196" width="34" height="34" rx="9"/><path d="M156 213 l8 8 l14 -17"/><path d="M206 213 H362"/><rect x="148" y="258" width="34" height="34" rx="9"/><path d="M156 275 l8 8 l14 -17"/><path d="M206 275 H326"/><rect x="148" y="320" width="34" height="34" rx="9"/><path d="M206 337 H290"/></g>
</svg>
